<svg xmlns="http://www.w3.org/2000/svg" viewBox="0 0 460 960" width="460" height="960" role="img" aria-label="PKONG interests">
  <defs>
    <linearGradient id="sky" x1="0" y1="0" x2="0" y2="1">
      <stop offset="0" stop-color="#dcefff"/>
      <stop offset="1" stop-color="#b8ddfb"/>
    </linearGradient>
    <clipPath id="round"><rect width="460" height="960" rx="18"/></clipPath>
  </defs>
  <g clip-path="url(#round)">
    <rect width="460" height="960" fill="url(#sky)"/>
    <circle cx="66.4" cy="236.8" r="3.0" fill="#fff" opacity="0.73"/>
    <circle cx="16.9" cy="175.2" r="1.7" fill="#fff" opacity="0.74"/>
    <circle cx="187.0" cy="319.8" r="2.5" fill="#fff" opacity="0.74"/>
    <circle cx="360.0" cy="757.3" r="1.5" fill="#fff" opacity="0.46"/>
    <circle cx="232.5" cy="347.0" r="2.8" fill="#fff" opacity="0.64"/>
    <circle cx="101.3" cy="932.3" r="2.2" fill="#fff" opacity="0.81"/>
    <circle cx="14.8" cy="202.9" r="3.1" fill="#fff" opacity="0.75"/>
    <circle cx="172.5" cy="863.0" r="2.1" fill="#fff" opacity="0.59"/>
    <circle cx="252.3" cy="96.2" r="2.1" fill="#fff" opacity="0.77"/>
    <circle cx="221.1" cy="704.6" r="3.7" fill="#fff" opacity="0.77"/>
    <circle cx="91.0" cy="605.6" r="3.5" fill="#fff" opacity="0.47"/>
    <circle cx="410.5" cy="808.3" r="1.6" fill="#fff" opacity="0.85"/>
    <circle cx="31.4" cy="71.9" r="3.7" fill="#fff" opacity="0.66"/>
    <circle cx="419.0" cy="508.1" r="3.3" fill="#fff" opacity="0.83"/>
    <circle cx="183.9" cy="99.8" r="2.2" fill="#fff" opacity="0.71"/>
    <circle cx="107.9" cy="844.0" r="3.0" fill="#fff" opacity="0.58"/>
    <circle cx="277.0" cy="811.2" r="2.2" fill="#fff" opacity="0.78"/>
    <circle cx="18.1" cy="489.9" r="3.7" fill="#fff" opacity="0.67"/>
    <circle cx="12.2" cy="910.0" r="1.8" fill="#fff" opacity="0.84"/>
    <circle cx="162.5" cy="779.3" r="2.7" fill="#fff" opacity="0.71"/>
    <circle cx="228.3" cy="368.2" r="2.5" fill="#fff" opacity="0.50"/>
    <circle cx="79.7" cy="582.7" r="2.4" fill="#fff" opacity="0.64"/>
    <circle cx="394.3" cy="93.1" r="2.6" fill="#fff" opacity="0.77"/>
    <circle cx="39.6" cy="266.1" r="3.7" fill="#fff" opacity="0.69"/>
    <circle cx="437.5" cy="327.2" r="3.6" fill="#fff" opacity="0.78"/>
    <circle cx="22.2" cy="402.6" r="2.9" fill="#fff" opacity="0.73"/>
    <circle cx="319.6" cy="275.8" r="2.7" fill="#fff" opacity="0.56"/>
    <circle cx="41.2" cy="586.6" r="2.6" fill="#fff" opacity="0.67"/>
    <circle cx="257.8" cy="371.3" r="3.6" fill="#fff" opacity="0.84"/>
    <circle cx="176.5" cy="410.3" r="2.8" fill="#fff" opacity="0.61"/>
    <circle cx="130.3" cy="906.0" r="2.6" fill="#fff" opacity="0.80"/>
    <circle cx="144.2" cy="134.7" r="3.6" fill="#fff" opacity="0.59"/>
    <circle cx="298.0" cy="283.7" r="2.3" fill="#fff" opacity="0.86"/>
    <circle cx="326.3" cy="546.5" r="2.2" fill="#fff" opacity="0.70"/>
    <circle cx="263.1" cy="906.5" r="3.8" fill="#fff" opacity="0.85"/>
    <circle cx="185.6" cy="258.1" r="2.5" fill="#fff" opacity="0.48"/>
    <circle cx="378.4" cy="875.2" r="1.8" fill="#fff" opacity="0.77"/>
    <circle cx="35.1" cy="433.0" r="2.7" fill="#fff" opacity="0.68"/>
    <circle cx="154.4" cy="898.9" r="1.7" fill="#fff" opacity="0.45"/>
    <circle cx="383.1" cy="302.0" r="3.4" fill="#fff" opacity="0.75"/>
    <circle cx="350.7" cy="695.7" r="2.2" fill="#fff" opacity="0.48"/>
    <circle cx="140.7" cy="399.8" r="3.5" fill="#fff" opacity="0.72"/>
    <circle cx="395.0" cy="635.4" r="3.7" fill="#fff" opacity="0.73"/>
    <circle cx="336.1" cy="359.5" r="3.6" fill="#fff" opacity="0.65"/>
    <circle cx="413.1" cy="266.9" r="1.9" fill="#fff" opacity="0.59"/>
    <circle cx="345.5" cy="835.5" r="2.1" fill="#fff" opacity="0.58"/>
    <circle cx="436.9" cy="62.1" r="2.2" fill="#fff" opacity="0.46"/>
    <circle cx="60.2" cy="722.8" r="2.8" fill="#fff" opacity="0.46"/>
    <circle cx="412.8" cy="243.7" r="2.1" fill="#fff" opacity="0.81"/>
    <circle cx="52.0" cy="149.2" r="1.7" fill="#fff" opacity="0.62"/>
    <circle cx="361.1" cy="146.9" r="2.2" fill="#fff" opacity="0.45"/>
    <circle cx="70.1" cy="437.9" r="3.5" fill="#fff" opacity="0.81"/>
    <circle cx="286.5" cy="869.2" r="2.3" fill="#fff" opacity="0.84"/>
    <circle cx="153.8" cy="158.8" r="1.9" fill="#fff" opacity="0.58"/>
    <circle cx="280.6" cy="59.5" r="1.7" fill="#fff" opacity="0.80"/>
    <circle cx="320.1" cy="941.4" r="2.6" fill="#fff" opacity="0.49"/>
    <circle cx="280.0" cy="950.8" r="2.8" fill="#fff" opacity="0.48"/>
    <circle cx="60.4" cy="361.1" r="1.8" fill="#fff" opacity="0.58"/>
    <circle cx="239.4" cy="222.6" r="3.0" fill="#fff" opacity="0.73"/>
    <circle cx="370.0" cy="649.6" r="3.1" fill="#fff" opacity="0.54"/>
    <circle cx="7.7" cy="731.6" r="2.6" fill="#fff" opacity="0.70"/>
    <circle cx="122.7" cy="77.6" r="2.7" fill="#fff" opacity="0.50"/>
    <circle cx="360.4" cy="292.1" r="1.5" fill="#fff" opacity="0.61"/>
    <circle cx="211.5" cy="372.8" r="3.4" fill="#fff" opacity="0.65"/>
    <circle cx="139.0" cy="766.2" r="2.8" fill="#fff" opacity="0.71"/>
    <circle cx="50.7" cy="432.7" r="1.8" fill="#fff" opacity="0.51"/>
    <circle cx="243.4" cy="95.3" r="3.7" fill="#fff" opacity="0.60"/>
    <circle cx="8.8" cy="198.6" r="2.1" fill="#fff" opacity="0.78"/>
    <circle cx="453.8" cy="466.2" r="1.7" fill="#fff" opacity="0.64"/>
    <circle cx="206.7" cy="103.9" r="1.8" fill="#fff" opacity="0.51"/>
    <circle cx="224.8" cy="773.6" r="3.5" fill="#fff" opacity="0.60"/>
  </g>
  <rect x="0.75" y="0.75" width="458.5" height="958.5" rx="18" fill="none" stroke="#9cc9ef" stroke-width="1.5"/>
  <g opacity="0.000">
    <rect x="258.6" y="6.5" width="143.4" height="35.0" rx="17.5" fill="#ef4444"/>
    <text x="330.3" y="24.0" font-family="'Segoe UI','PingFang SC','Microsoft YaHei',Ubuntu,Helvetica,Arial,sans-serif" font-size="21" font-weight="700" fill="#ffffff" text-anchor="middle" dominant-baseline="central">Guangzhou</text>
  </g>
  <g opacity="0.987">
    <rect x="165.0" y="275.3" width="129.0" height="36.0" rx="18.0" fill="#f97316"/>
    <text x="229.5" y="293.3" font-family="'Segoe UI','PingFang SC','Microsoft YaHei',Ubuntu,Helvetica,Arial,sans-serif" font-size="22" font-weight="700" fill="#ffffff" text-anchor="middle" dominant-baseline="central">Tar Heel</text>
  </g>
  <g opacity="0.727">
    <rect x="229.2" y="918.2" width="183.9" height="33.0" rx="16.5" fill="#d97706"/>
    <text x="321.1" y="934.7" font-family="'Segoe UI','PingFang SC','Microsoft YaHei',Ubuntu,Helvetica,Arial,sans-serif" font-size="19" font-weight="700" fill="#ffffff" text-anchor="middle" dominant-baseline="central">Comp Sci + Math</text>
  </g>
  <g opacity="0.606">
    <rect x="307.3" y="473.3" width="135.6" height="36.0" rx="18.0" fill="#ca8a04"/>
    <text x="375.1" y="491.3" font-family="'Segoe UI','PingFang SC','Microsoft YaHei',Ubuntu,Helvetica,Arial,sans-serif" font-size="22" font-weight="700" fill="#ffffff" text-anchor="middle" dominant-baseline="central">Cat + Dog</text>
  </g>
  <g opacity="0.346">
    <rect x="138.4" y="60.7" width="253.2" height="38.0" rx="19.0" fill="#65a30d"/>
    <text x="265.0" y="79.7" font-family="'Segoe UI','PingFang SC','Microsoft YaHei',Ubuntu,Helvetica,Arial,sans-serif" font-size="24" font-weight="700" fill="#ffffff" text-anchor="middle" dominant-baseline="central">Agentic workflow</text>
  </g>
  <g opacity="0.000">
    <rect x="5.8" y="60.6" width="73.2" height="38.0" rx="19.0" fill="#16a34a"/>
    <text x="42.4" y="79.6" font-family="'Segoe UI','PingFang SC','Microsoft YaHei',Ubuntu,Helvetica,Arial,sans-serif" font-size="24" font-weight="700" fill="#ffffff" text-anchor="middle" dominant-baseline="central">H2P</text>
  </g>
  <g opacity="0.000">
    <rect x="6.0" y="331.6" width="370.2" height="41.0" rx="20.5" fill="#059669"/>
    <text x="191.1" y="352.1" font-family="'Segoe UI','PingFang SC','Microsoft YaHei',Ubuntu,Helvetica,Arial,sans-serif" font-size="27" font-weight="700" fill="#ffffff" text-anchor="middle" dominant-baseline="central">History + Architecture</text>
  </g>
  <g opacity="0.000">
    <rect x="91.4" y="504.0" width="116.4" height="32.0" rx="16.0" fill="#0d9488"/>
    <text x="149.6" y="520.0" font-family="'Segoe UI','PingFang SC','Microsoft YaHei',Ubuntu,Helvetica,Arial,sans-serif" font-size="18" font-weight="700" fill="#ffffff" text-anchor="middle" dominant-baseline="central">LLM + VLN</text>
  </g>
  <g opacity="1.000">
    <rect x="389.6" y="356.7" width="61.2" height="40.0" rx="20.0" fill="#0891b2"/>
    <text x="420.2" y="376.7" font-family="'Segoe UI','PingFang SC','Microsoft YaHei',Ubuntu,Helvetica,Arial,sans-serif" font-size="26" font-weight="700" fill="#ffffff" text-anchor="middle" dominant-baseline="central">ML</text>
  </g>
  <g opacity="0.000">
    <rect x="4.9" y="569.7" width="94.8" height="41.0" rx="20.5" fill="#0284c7"/>
    <text x="52.3" y="590.2" font-family="'Segoe UI','PingFang SC','Microsoft YaHei',Ubuntu,Helvetica,Arial,sans-serif" font-size="27" font-weight="700" fill="#ffffff" text-anchor="middle" dominant-baseline="central">Kong</text>
  </g>
  <g opacity="1.000">
    <rect x="41.2" y="461.3" width="246.0" height="34.0" rx="17.0" fill="#2563eb"/>
    <text x="164.2" y="478.3" font-family="'Segoe UI','PingFang SC','Microsoft YaHei',Ubuntu,Helvetica,Arial,sans-serif" font-size="20" font-weight="700" fill="#ffffff" text-anchor="middle" dominant-baseline="central">RPG + ACT + FPS + SLG</text>
  </g>
  <g opacity="0.000">
    <rect x="17.7" y="407.7" width="435.0" height="39.0" rx="19.5" fill="#4f46e5"/>
    <text x="235.2" y="427.2" font-family="'Segoe UI','PingFang SC','Microsoft YaHei',Ubuntu,Helvetica,Arial,sans-serif" font-size="25" font-weight="700" fill="#ffffff" text-anchor="middle" dominant-baseline="central">Fiction + Realism + Detective</text>
  </g>
  <g opacity="0.000">
    <rect x="186.7" y="776.8" width="80.0" height="39.0" rx="19.5" fill="#6d28d9"/>
    <text x="226.7" y="796.3" font-family="'Segoe UI','PingFang SC','Microsoft YaHei',Ubuntu,Helvetica,Arial,sans-serif" font-size="25" font-weight="700" fill="#ffffff" text-anchor="middle" dominant-baseline="central">派孔</text>
  </g>
  <g opacity="0.000">
    <rect x="4.9" y="278.8" width="132.6" height="33.0" rx="16.5" fill="#7c3aed"/>
    <text x="71.2" y="295.3" font-family="'Segoe UI','PingFang SC','Microsoft YaHei',Ubuntu,Helvetica,Arial,sans-serif" font-size="19" font-weight="700" fill="#ffffff" text-anchor="middle" dominant-baseline="central">Soulslike</text>
  </g>
  <g opacity="1.000">
    <rect x="258.2" y="860.2" width="192.0" height="34.0" rx="17.0" fill="#9333ea"/>
    <text x="354.2" y="877.2" font-family="'Segoe UI','PingFang SC','Microsoft YaHei',Ubuntu,Helvetica,Arial,sans-serif" font-size="20" font-weight="700" fill="#ffffff" text-anchor="middle" dominant-baseline="central">Drafting Manga</text>
  </g>
  <g opacity="0.000">
    <rect x="10.6" y="521.0" width="67.8" height="35.0" rx="17.5" fill="#c026d3"/>
    <text x="44.5" y="538.5" font-family="'Segoe UI','PingFang SC','Microsoft YaHei',Ubuntu,Helvetica,Arial,sans-serif" font-size="21" font-weight="700" fill="#ffffff" text-anchor="middle" dominant-baseline="central">pho</text>
  </g>
  <g opacity="1.000">
    <rect x="296.3" y="174.9" width="105.0" height="39.0" rx="19.5" fill="#db2777"/>
    <text x="348.8" y="194.4" font-family="'Segoe UI','PingFang SC','Microsoft YaHei',Ubuntu,Helvetica,Arial,sans-serif" font-size="25" font-weight="700" fill="#ffffff" text-anchor="middle" dominant-baseline="central">ramen</text>
  </g>
  <g opacity="0.000">
    <rect x="27.2" y="224.1" width="349.2" height="42.0" rx="21.0" fill="#e11d48"/>
    <text x="201.8" y="245.1" font-family="'Segoe UI','PingFang SC','Microsoft YaHei',Ubuntu,Helvetica,Arial,sans-serif" font-size="28" font-weight="700" fill="#ffffff" text-anchor="middle" dominant-baseline="central">Hiking + Backpacking</text>
  </g>
  <g opacity="0.000">
    <rect x="7.3" y="713.8" width="248.7" height="41.0" rx="20.5" fill="#b91c1c"/>
    <text x="131.7" y="734.3" font-family="'Segoe UI','PingFang SC','Microsoft YaHei',Ubuntu,Helvetica,Arial,sans-serif" font-size="27" font-weight="700" fill="#ffffff" text-anchor="middle" dominant-baseline="central">Edge Computing</text>
  </g>
  <g opacity="1.000">
    <rect x="17.1" y="634.6" width="429.0" height="28.0" rx="14.0" fill="#b45309"/>
    <text x="231.6" y="648.6" font-family="'Segoe UI','PingFang SC','Microsoft YaHei',Ubuntu,Helvetica,Arial,sans-serif" font-size="14" font-weight="700" fill="#ffffff" text-anchor="middle" dominant-baseline="central">Horror + Adventure + Simulation + Interactive Movie</text>
  </g>
  <g opacity="0.000">
    <rect x="290.0" y="768.7" width="164.4" height="42.0" rx="21.0" fill="#4d7c0f"/>
    <text x="372.2" y="789.7" font-family="'Segoe UI','PingFang SC','Microsoft YaHei',Ubuntu,Helvetica,Arial,sans-serif" font-size="28" font-weight="700" fill="#ffffff" text-anchor="middle" dominant-baseline="central">PVP + PVE</text>
  </g>
  <g opacity="0.225">
    <rect x="271.9" y="116.9" width="162.0" height="36.0" rx="18.0" fill="#15803d"/>
    <text x="352.9" y="134.9" font-family="'Segoe UI','PingFang SC','Microsoft YaHei',Ubuntu,Helvetica,Arial,sans-serif" font-size="22" font-weight="700" fill="#ffffff" text-anchor="middle" dominant-baseline="central">Basketball</text>
  </g>
  <g opacity="0.000">
    <rect x="329.3" y="276.1" width="87.6" height="38.0" rx="19.0" fill="#0f766e"/>
    <text x="373.1" y="295.1" font-family="'Segoe UI','PingFang SC','Microsoft YaHei',Ubuntu,Helvetica,Arial,sans-serif" font-size="24" font-weight="700" fill="#ffffff" text-anchor="middle" dominant-baseline="central">Boba</text>
  </g>
  <g opacity="0.000">
    <rect x="31.6" y="769.9" width="143.4" height="35.0" rx="17.5" fill="#1d4ed8"/>
    <text x="103.3" y="787.4" font-family="'Segoe UI','PingFang SC','Microsoft YaHei',Ubuntu,Helvetica,Arial,sans-serif" font-size="21" font-weight="700" fill="#ffffff" text-anchor="middle" dominant-baseline="central">Pineapple</text>
  </g>
  <g opacity="0.000">
    <rect x="98.7" y="5.7" width="139.2" height="40.0" rx="20.0" fill="#6366f1"/>
    <text x="168.3" y="25.7" font-family="'Segoe UI','PingFang SC','Microsoft YaHei',Ubuntu,Helvetica,Arial,sans-serif" font-size="26" font-weight="700" fill="#ffffff" text-anchor="middle" dominant-baseline="central">Seaweed</text>
  </g>
  <g opacity="0.000">
    <rect x="273.4" y="696.6" width="168.0" height="37.0" rx="18.5" fill="#a21caf"/>
    <text x="357.4" y="715.1" font-family="'Segoe UI','PingFang SC','Microsoft YaHei',Ubuntu,Helvetica,Arial,sans-serif" font-size="23" font-weight="700" fill="#ffffff" text-anchor="middle" dominant-baseline="central">Travelling</text>
  </g>
  <g opacity="0.000">
    <rect x="12.8" y="844.5" width="216.3" height="37.0" rx="18.5" fill="#ef4444"/>
    <text x="120.9" y="863.0" font-family="'Segoe UI','PingFang SC','Microsoft YaHei',Ubuntu,Helvetica,Arial,sans-serif" font-size="23" font-weight="700" fill="#ffffff" text-anchor="middle" dominant-baseline="central">Tortoise jelly</text>
  </g>
  <g opacity="0.000">
    <rect x="33.5" y="901.9" width="151.8" height="43.0" rx="21.5" fill="#f97316"/>
    <text x="109.4" y="923.4" font-family="'Segoe UI','PingFang SC','Microsoft YaHei',Ubuntu,Helvetica,Arial,sans-serif" font-size="29" font-weight="700" fill="#ffffff" text-anchor="middle" dominant-baseline="central">Cooking</text>
  </g>
  <g opacity="0.000">
    <rect x="141.7" y="548.1" width="255.0" height="44.0" rx="22.0" fill="#d97706"/>
    <text x="269.2" y="570.1" font-family="'Segoe UI','PingFang SC','Microsoft YaHei',Ubuntu,Helvetica,Arial,sans-serif" font-size="30" font-weight="700" fill="#ffffff" text-anchor="middle" dominant-baseline="central">Peer Teaching</text>
  </g>
  <g opacity="0.000">
    <rect x="4.0" y="176.0" width="102.6" height="36.0" rx="18.0" fill="#ca8a04"/>
    <text x="55.3" y="194.0" font-family="'Segoe UI','PingFang SC','Microsoft YaHei',Ubuntu,Helvetica,Arial,sans-serif" font-size="22" font-weight="700" fill="#ffffff" text-anchor="middle" dominant-baseline="central">By Air</text>
  </g>
  <g opacity="0.000">
    <rect x="118.6" y="175.8" width="168.6" height="36.0" rx="18.0" fill="#65a30d"/>
    <text x="202.9" y="193.8" font-family="'Segoe UI','PingFang SC','Microsoft YaHei',Ubuntu,Helvetica,Arial,sans-serif" font-size="22" font-weight="700" fill="#ffffff" text-anchor="middle" dominant-baseline="central">Nature Walk</text>
  </g>
  <g opacity="0.000">
    <rect x="85.1" y="114.0" width="172.5" height="33.0" rx="16.5" fill="#16a34a"/>
    <text x="171.4" y="130.5" font-family="'Segoe UI','PingFang SC','Microsoft YaHei',Ubuntu,Helvetica,Arial,sans-serif" font-size="19" font-weight="700" fill="#ffffff" text-anchor="middle" dominant-baseline="central">Public Speech</text>
  </g>
</svg>
